subject01_walk1_states
version=1
nRows=4
nColumns=155
inDegrees=yes

# SIMM Motion File Header:
name subject01_walk1_states
datacolumns 155
datarows 4
otherdata 1
range 0.93846090310706998000 0.94083327210584033000
endheader
time	pelvis_tilt	pelvis_list	pelvis_rotation	pelvis_tx	pelvis_ty	pelvis_tz	hip_flexion_r	hip_adduction_r	hip_rotation_r	knee_angle_r	ankle_angle_r	subtalar_angle_r	mtp_angle_r	hip_flexion_l	hip_adduction_l	hip_rotation_l	knee_angle_l	ankle_angle_l	subtalar_angle_l	mtp_angle_l	lumbar_extension	lumbar_bending	lumbar_rotation	pelvis_tilt_u	pelvis_list_u	pelvis_rotation_u	pelvis_tx_u	pelvis_ty_u	pelvis_tz_u	hip_flexion_r_u	hip_adduction_r_u	hip_rotation_r_u	knee_angle_r_u	ankle_angle_r_u	subtalar_angle_r_u	mtp_angle_r_u	hip_flexion_l_u	hip_adduction_l_u	hip_rotation_l_u	knee_angle_l_u	ankle_angle_l_u	subtalar_angle_l_u	mtp_angle_l_u	lumbar_extension_u	lumbar_bending_u	lumbar_rotation_u	glut_med1_r.activation	glut_med1_r.fiber_length	glut_med2_r.activation	glut_med2_r.fiber_length	glut_med3_r.activation	glut_med3_r.fiber_length	bifemlh_r.activation	bifemlh_r.fiber_length	bifemsh_r.activation	bifemsh_r.fiber_length	sar_r.activation	sar_r.fiber_length	add_mag2_r.activation	add_mag2_r.fiber_length	tfl_r.activation	tfl_r.fiber_length	pect_r.activation	pect_r.fiber_length	grac_r.activation	grac_r.fiber_length	glut_max1_r.activation	glut_max1_r.fiber_length	glut_max2_r.activation	glut_max2_r.fiber_length	glut_max3_r.activation	glut_max3_r.fiber_length	iliacus_r.activation	iliacus_r.fiber_length	psoas_r.activation	psoas_r.fiber_length	quad_fem_r.activation	quad_fem_r.fiber_length	gem_r.activation	gem_r.fiber_length	peri_r.activation	peri_r.fiber_length	rect_fem_r.activation	rect_fem_r.fiber_length	vas_int_r.activation	vas_int_r.fiber_length	med_gas_r.activation	med_gas_r.fiber_length	soleus_r.activation	soleus_r.fiber_length	tib_post_r.activation	tib_post_r.fiber_length	tib_ant_r.activation	tib_ant_r.fiber_length	glut_med1_l.activation	glut_med1_l.fiber_length	glut_med2_l.activation	glut_med2_l.fiber_length	glut_med3_l.activation	glut_med3_l.fiber_length	bifemlh_l.activation	bifemlh_l.fiber_length	bifemsh_l.activation	bifemsh_l.fiber_length	sar_l.activation	sar_l.fiber_length	add_mag2_l.activation	add_mag2_l.fiber_length	tfl_l.activation	tfl_l.fiber_length	pect_l.activation	pect_l.fiber_length	grac_l.activation	grac_l.fiber_length	glut_max1_l.activation	glut_max1_l.fiber_length	glut_max2_l.activation	glut_max2_l.fiber_length	glut_max3_l.activation	glut_max3_l.fiber_length	iliacus_l.activation	iliacus_l.fiber_length	psoas_l.activation	psoas_l.fiber_length	quad_fem_l.activation	quad_fem_l.fiber_length	gem_l.activation	gem_l.fiber_length	peri_l.activation	peri_l.fiber_length	rect_fem_l.activation	rect_fem_l.fiber_length	vas_int_l.activation	vas_int_l.fiber_length	med_gas_l.activation	med_gas_l.fiber_length	soleus_l.activation	soleus_l.fiber_length	tib_post_l.activation	tib_post_l.fiber_length	tib_ant_l.activation	tib_ant_l.fiber_length	ercspn_r.activation	ercspn_r.fiber_length	ercspn_l.activation	ercspn_l.fiber_length	intobl_r.activation	intobl_r.fiber_length	intobl_l.activation	intobl_l.fiber_length	extobl_r.activation	extobl_r.fiber_length	extobl_l.activation	extobl_l.fiber_length
      0.93846090310706998000	      4.55212523941959900000	     -0.37873548785510158000	      2.04778807268670350000	      0.59974309627246092000	      1.04206973787851600000	      0.04228538420360480900	      2.93812113305684400000	      1.97887285179997670000	     -5.27719071399679770000	    -14.15949990339729300000	      6.29652753762936790000	     -0.00137789784662488450	     -0.40082079921172270000	     14.01505160391995400000	     -4.56340939913624320000	     -4.23632156262202030000	    -66.98926224395273700000	     -0.64462039869417342000	      0.00208275994517799660	      0.24297651771992848000	    -18.25478305285119900000	      2.44429240907715120000	     -0.69392357730597487000	      1.43510666258948170000	     23.36595342220261900000	    -26.21467944997379400000	     -0.09491687231136843000	      0.11888633945871732000	      0.10501623948877266000	   -101.53901561250068000000	    -12.59537788109281400000	     34.14721773717918300000	     72.08033613839495500000	     17.45222105240163700000	      3.78273771473668010000	     17.79370790655422500000	    101.89726872204672000000	     55.48360320787516300000	     17.91982308007207800000	     85.44751247741191900000	     59.78703323126028800000	      0.89615088522978914000	     -1.67658915066712240000	     -7.51684276168655160000	    -35.63596766118539700000	     33.11419640496933400000	      0.56485592571095933000	      0.04948094362575027700	      0.43004798639744790000	      0.08382122593077669100	      0.35114167847229882000	      0.06302528978869750800	      0.09548433132717738800	      0.09798082587046554000	      0.18164058942707945000	      0.18238185181965100000	      0.06629038681881693800	      0.51442577961118108000	      0.01999999999999999700	      0.08195041780347774000	      0.19298877781206930000	      0.11981826546030189000	      0.01999999999999999700	      0.07639397745752346500	      0.01999999999999999700	      0.34607270218305636000	      0.10970281404625098000	      0.08177325963707239600	      0.09769461954406702400	      0.09001859049745628000	      0.03052978397761025400	      0.09819283294637466700	      0.03384780359313330200	      0.11139619459128784000	      0.03781452492377915300	      0.10364149270872472000	      0.01999999999999999700	      0.04285367946378436400	      0.02118896103223700700	      0.02354536472307682000	      0.13076179145358965000	      0.02026805805129499100	      0.04018004110885554200	      0.12220169959987516000	      0.10587797281526858000	      0.08750585168844168800	      0.19163211696613089000	      0.08744342429091887800	      0.07813824023196475100	      0.04873309521305412000	      0.11538602950712860000	      0.03288701425977565800	      0.05939321722613051500	      0.07465044212977445200	      0.04491280782422148200	      0.04765272816118326000	      0.02426805507097564600	      0.08452046766958885800	      0.03420400466939808900	      0.06511354767909120800	      0.02908913029459999100	      0.08417127920498999900	      0.08720097250807182200	      0.15732074401061680000	      0.10103707448610079000	      0.49006769208127088000	      0.04009195258190333800	      0.09410472019606581900	      0.24346420118268863000	      0.11606009958546791000	      0.06353709769604282100	      0.07593894742023858700	      0.04544318696668789300	      0.32436747033785762000	      0.01999999999999999700	      0.08870406413470863200	      0.01999999999999999700	      0.10027334569721527000	      0.01999999999999999700	      0.11846583124740637000	      0.25821304780788029000	      0.10318532096825400000	      0.26704038967878713000	      0.09513811499719870800	      0.10810780600230174000	      0.04848413248578942900	      0.05395841716822925800	      0.02471548453519228600	      0.04927958202504273400	      0.02021327949610531000	      0.15459630802807578000	      0.15383879540380646000	      0.01999999999999999700	      0.12822015903075676000	      0.01999999999999999700	      0.06602727258180426900	      0.01999999999999999700	      0.04481365198473873800	      0.01999999999999999700	      0.03339638301901681100	      0.13558847233730967000	      0.07906171800021713500	      0.06493282012579773600	      0.13834269060467977000	      0.26652489248666222000	      0.14114055981368201000	      0.01999999999999999700	      0.08222145838452961400	      0.11790802649919770000	      0.09195076337177370000	      0.01999999999999999700	      0.11466204326215670000	      0.02637064762461150900	      0.11833269320524295000
      0.93925169277332676000	      4.55326025720204000000	     -0.36029599440676807000	      2.02705163913831930000	      0.59966780233144568000	      1.04216328155957940000	      0.04236821574379930100	      2.85789558779597200000	      1.96891329815611700000	     -5.25025915091778030000	    -14.10258581951044100000	      6.30976181417911520000	      0.00118727959684492490	     -0.38478328142634000000	     14.09544278169658000000	     -4.51960066555356650000	     -4.22223370555755560000	    -66.92090885568659100000	     -0.59776391693204067000	      0.00276565885409491790	      0.24178945852264630000	    -18.26075438363748300000	      2.41614934424864240000	     -0.66777960029208783000	      1.43749257684668240000	     23.27034238136947100000	    -26.23024251101395500000	     -0.09550741338525696500	      0.11769704438956968000	      0.10447765785952159000	   -101.36338953491149000000	    -12.59382924104302700000	     33.96383338163481400000	     71.85814792936328400000	     16.12832886330853900000	      2.72028049769662910000	     22.38533308840937500000	    101.41783196668202000000	     55.31154308768977800000	     17.70445231044485700000	     87.42742110721786700000	     58.70869688299628600000	      0.81976323494980474000	     -1.29449567196912610000	     -7.58727956505147020000	    -35.54223963884830100000	     33.00687167588732500000	      0.56544782541391359000	      0.04943480941686623200	      0.43088266450417356000	      0.08377456979020121700	      0.35207900298848366000	      0.06298986461050454200	      0.09455679029288556500	      0.09794718911417704700	      0.18277101168507984000	      0.18240226974188931000	      0.06647469270956869700	      0.51449775542034415000	      0.01999999999999999700	      0.08193510445189156100	      0.19040898184050506000	      0.11981806099091667000	      0.01999999999999999700	      0.07643470495519764900	      0.01999999999999999700	      0.34610619488150463000	      0.10972709576762496000	      0.08170435926811563100	      0.09673431737502806400	      0.08994682863234720900	      0.03041679356510509600	      0.09810064999719009200	      0.03423591800065655500	      0.11144652149170181000	      0.03826118694936508200	      0.10368206852405330000	      0.01999999999999999700	      0.04289024097798267700	      0.02117652691610823200	      0.02356574962516319200	      0.13051107936990169000	      0.02025392965134534600	      0.03995781825464838500	      0.12222309259755669000	      0.10476809433281063000	      0.08746772746402423100	      0.19234223415875501000	      0.08747589084266294000	      0.07743374753910492500	      0.04874058578432710600	      0.11412693528935862000	      0.03289138632070112700	      0.05893736267398776800	      0.07464640201186829900	      0.04499826423143783700	      0.04770004050721844000	      0.02442585429581174000	      0.08459379587006168900	      0.03468636398991539700	      0.06520008472224445000	      0.02899198092522145600	      0.08428226966979655800	      0.08644442790628402400	      0.15735339618332331000	      0.10043233843420066000	      0.49003057032475195000	      0.03987075136489105800	      0.09409674670471653000	      0.23972046658122648000	      0.11597276440960368000	      0.06305140765488759200	      0.07587944221023576500	      0.04515910236590357100	      0.32437999924184291000	      0.01999999999999999700	      0.08879787800599417400	      0.01999999999999999700	      0.10036778509238069000	      0.01999999999999999700	      0.11854545634442833000	      0.25739878086898588000	      0.10312047308767887000	      0.26694573115125503000	      0.09507537692547150800	      0.10696340341068265000	      0.04847562210693067600	      0.05359364608965676300	      0.02471926552840944200	      0.04957689941819713000	      0.02025205410746178400	      0.15488803102920218000	      0.15373917057844791000	      0.01999999999999999700	      0.12818105935254392000	      0.01999999999999999700	      0.06608616702950739800	      0.01999999999999999700	      0.04485009974058791500	      0.01999999999999999700	      0.03340716632684955600	      0.13458915618417380000	      0.07903029688046722700	      0.06494600894117835700	      0.13835999764872897000	      0.26612263550933796000	      0.14113097100509442000	      0.01999999999999999700	      0.08228703760424076200	      0.11803487206263286000	      0.09187529184379424100	      0.01999999999999999700	      0.11466207468569714000	      0.02630306015352133400	      0.11832232824343275000
      0.94004248243958355000	      4.55438922654100950000	     -0.34192407541104358000	      2.00631733528693970000	      0.59959204226333507000	      1.04225586338064090000	      0.04245060068247893300	      2.77781625263101660000	      1.95894473917202610000	     -5.22349092853199440000	    -14.04585938439408500000	      6.32223295937049650000	      0.00295897651373593690	     -0.36607991433603448000	     14.17546727368233500000	     -4.47591484534654430000	     -4.20830077464397780000	    -66.85099337914609000000	     -0.55179028113508288000	      0.00336465461107028280	      0.24097161702696487000	    -18.26677165008590400000	      2.38807495652852350000	     -0.64173692573579411000	      1.41607780314038090000	     23.19792084211366400000	    -26.20499038304400200000	     -0.09609744477059055400	      0.11644694044185112000	      0.10387785047703722000	   -101.16534523890557000000	    -12.62205126787766900000	     33.73080528811706800000	     71.60436217725884900000	     15.54378655756352100000	      1.78543360527973130000	     24.46972910290000400000	    100.97598225300592000000	     55.17960663282253400000	     17.53667165974665900000	     89.39648006032055600000	     57.55290926780806900000	      0.68492152520103078000	     -0.74844030029191433000	     -7.62881809533809910000	    -35.46411883326895500000	     32.85293357434292700000	      0.56564396698622377000	      0.04938876657397985700	      0.43136721546027584000	      0.08372806615002406600	      0.35266354689156720000	      0.06295462168664552000	      0.09364291297131725800	      0.09791387655605586500	      0.18369020496393609000	      0.18242317275999292000	      0.06660947481937692900	      0.51456968874501741000	      0.01999999999999999700	      0.08191996518664505800	      0.18787099489799303000	      0.11981891027697499000	      0.01999999999999999700	      0.07647536321981185400	      0.01999999999999999700	      0.34613971880715677000	      0.10967727238958473000	      0.08163542284832202300	      0.09578828371809791600	      0.08987510031925652300	      0.03030504994035268900	      0.09800864581676742300	      0.03462976678655559100	      0.11149768567804524000	      0.03889303344088025600	      0.10372501483841838000	      0.01999999999999999700	      0.04292412039459378400	      0.02116422326259151700	      0.02358606582382414100	      0.13011497420252280000	      0.02024009702386575900	      0.03973817183833310700	      0.12224442077071099000	      0.10367529251615430000	      0.08742968851213527000	      0.19366865263556879000	      0.08750792436702079000	      0.07673896871998561700	      0.04874860624307839100	      0.11288790155331895000	      0.03289604381123062400	      0.05848730018888778600	      0.07464249869736347400	      0.04518490585859461600	      0.04774724642279853200	      0.02485699591685975800	      0.08466254416160018400	      0.03550850246476407900	      0.06525612750851010600	      0.02889589542680897800	      0.08439361793658711800	      0.08569008360643005900	      0.15738680444782374000	      0.09985658929668539400	      0.48999404449300210000	      0.03965211361193082100	      0.09408870071572056300	      0.23606350472906823000	      0.11589033384388138000	      0.06257197732627657600	      0.07582013857278657700	      0.04487839803265767500	      0.32439374734207271000	      0.01999999999999999700	      0.08889124498284584100	      0.01999999999999999700	      0.10046177217820348000	      0.01999999999999999700	      0.11862469902448618000	      0.25657252791305435000	      0.10305574158560943000	      0.26666497154925056000	      0.09501246063421874000	      0.10583675538417311000	      0.04846718536190152600	      0.05322955308560328700	      0.02472324407782232300	      0.05000654990097895500	      0.02029122261716144500	      0.15542405369435403000	      0.15363938537787247000	      0.01999999999999999700	      0.12814089111752661000	      0.01999999999999999700	      0.06614493190069227500	      0.01999999999999999700	      0.04488598540093052800	      0.01999999999999999700	      0.03341780574610941200	      0.13364256084847070000	      0.07899941165756677000	      0.06506156456337813800	      0.13837731183737098000	      0.26571008806926111000	      0.14112145416375707000	      0.01999999999999999700	      0.08235236364336830100	      0.11815759384729334000	      0.09179994775246845500	      0.01999999999999999700	      0.11466203703183923000	      0.02623620216289651200	      0.11831179809899228000
      0.94083327210584033000	      4.55550787433700500000	     -0.32360480374216871000	      1.98560449514015990000	      0.59951582360757394000	      1.04234746026052010000	      0.04253251382377967000	      2.69788479758897730000	      1.94894792102786020000	     -5.19691678439321960000	    -13.98934528702360500000	      6.33455990172659880000	      0.00410958668350060350	     -0.34682252816957337000	     14.25513131793401600000	     -4.43233407522603960000	     -4.19451106421606120000	    -66.77951703177235700000	     -0.50674953758732966000	      0.00383491045638639310	      0.24064560450804920000	    -18.27282831434445900000	      2.36005716625218740000	     -0.61581861003148131000	      1.41909345826642050000	     23.13375312873033400000	    -26.18204165564433000000	     -0.09666371994245813400	      0.11521958048481358000	      0.10329547334010596000	   -100.99765065971211000000	    -12.66216648006590400000	     33.47355680808973200000	     71.32134900729788300000	     15.76092711598042600000	      1.21542972424032030000	     23.79278785114988900000	    100.49406137546039000000	     55.03656700713905500000	     17.32972327459380700000	     91.37859590846137800000	     56.35654580498064800000	      0.49887100872042517000	     -0.05364640988648532900	     -7.69549135657798010000	    -35.39688240389789100000	     32.69948099723276900000	      0.56404842560146928000	      0.04934310193561670900	      0.43037551884667030000	      0.08368204281696214900	      0.35181869736036414000	      0.06291982899111310500	      0.09274244927350627800	      0.09788086983789957800	      0.18405202216406266000	      0.18244478640614634000	      0.06660076137234258200	      0.51464210382136999000	      0.01999999999999999700	      0.08190500111682676200	      0.18533315185929278000	      0.11982073434949836000	      0.01999999999999999700	      0.07651596101489990800	      0.01999999999999999700	      0.34617327366732675000	      0.10927314022365489000	      0.08156680404478192100	      0.09485625427087163200	      0.08980340565053568400	      0.03019453861330899700	      0.09791682447088576000	      0.03523620230008500000	      0.11154744028193118000	      0.04056082481079080500	      0.10376306415969344000	      0.01999999999999999700	      0.04296080403220430000	      0.02115204869394838800	      0.02360629955265615400	      0.12898743201958279000	      0.02022666525832436000	      0.03952106916058863200	      0.12226568448856899000	      0.10259923487851245000	      0.08739173667994039300	      0.19807038735711066000	      0.08753694236003456400	      0.07605374159865731200	      0.04875715313643197400	      0.11166851907663283000	      0.03290099779289198300	      0.05804294431574735800	      0.07463874621317502500	      0.04586324587530168900	      0.04779095573973148000	      0.02657472443364523900	      0.08472043481015600900	      0.03806737010520516700	      0.06531660225075407200	      0.02880086160745608600	      0.08450533081312185100	      0.08490430345629904100	      0.15742103303592297000	      0.09939019951041963600	      0.48995786402516200000	      0.03943600681310573800	      0.09408059924201539500	      0.23249052943400100000	      0.11581244015514643000	      0.06209871257587684700	      0.07576102811112747600	      0.04460102912798182000	      0.32440873328042558000	      0.01999999999999999700	      0.08898416651067118900	      0.01999999999999999700	      0.10055530973456087000	      0.01999999999999999700	      0.11870356084711196000	      0.25562726566261307000	      0.10299120080870197000	      0.26546178530691161000	      0.09494978859297385800	      0.10472751235207983000	      0.04845882302485926600	      0.05285099012471065900	      0.02472741490461425100	      0.05116519666035169300	      0.02032495716936419400	      0.15718700636916633000	      0.15353840121892826000	      0.01999999999999999700	      0.12809965635081766000	      0.01999999999999999700	      0.06620352563590897700	      0.01999999999999999700	      0.04492127594787168700	      0.01999999999999999700	      0.03342830146518873500	      0.13289334358176197000	      0.07896896964468015600	      0.06564272284909557200	      0.13839410208150579000	      0.26521787982172995000	      0.14111202097193482000	      0.01999999999999999700	      0.08241744423723493300	      0.11831286119523089000	      0.09172471120053843400	      0.01999999999999999700	      0.11466190433867086000	      0.02617006551710228000	      0.11830110687848834000
